<svg width="32" height="32" viewBox="0 0 32 32" xmlns="http://www.w3.org/2000/svg">
  <defs>
    <!-- Gradiente principal futurista -->
    <linearGradient id="mainGradient" x1="0%" y1="0%" x2="100%" y2="100%">
      <stop offset="0%" style="stop-color:#0a0a0a;stop-opacity:1" />
      <stop offset="30%" style="stop-color:#1a1a2e;stop-opacity:1" />
      <stop offset="70%" style="stop-color:#16213e;stop-opacity:1" />
      <stop offset="100%" style="stop-color:#0f0f0f;stop-opacity:1" />
    </linearGradient>
    
    <!-- Gradiente para elementos ativos -->
    <linearGradient id="activeGradient" x1="0%" y1="0%" x2="100%" y2="100%">
      <stop offset="0%" style="stop-color:#00d4ff;stop-opacity:1" />
      <stop offset="50%" style="stop-color:#0099cc;stop-opacity:1" />
      <stop offset="100%" style="stop-color:#0066aa;stop-opacity:1" />
    </linearGradient>
    
    <!-- Gradiente para elementos secundários -->
    <linearGradient id="secondaryGradient" x1="0%" y1="0%" x2="100%" y2="100%">
      <stop offset="0%" style="stop-color:#00ff88;stop-opacity:0.8" />
      <stop offset="100%" style="stop-color:#00cc66;stop-opacity:0.6" />
    </linearGradient>
    
    <!-- Gradiente para elementos de rede -->
    <linearGradient id="networkGradient" x1="0%" y1="0%" x2="100%" y2="100%">
      <stop offset="0%" style="stop-color:#ff6b6b;stop-opacity:0.7" />
      <stop offset="100%" style="stop-color:#ff4757;stop-opacity:0.5" />
    </linearGradient>
    
    <!-- Filtro de brilho -->
    <filter id="glow">
      <feGaussianBlur stdDeviation="0.5" result="coloredBlur"/>
      <feMerge> 
        <feMergeNode in="coloredBlur"/>
        <feMergeNode in="SourceGraphic"/>
      </feMerge>
    </filter>
  </defs>
  
  <!-- Fundo principal -->
  <rect width="32" height="32" fill="url(#mainGradient)" rx="4"/>
  
  <!-- Círculos de radar -->
  <circle cx="16" cy="16" r="13" fill="none" stroke="url(#activeGradient)" stroke-width="0.4" opacity="0.3"/>
  <circle cx="16" cy="16" r="10" fill="none" stroke="url(#activeGradient)" stroke-width="0.3" opacity="0.4"/>
  <circle cx="16" cy="16" r="7" fill="none" stroke="url(#activeGradient)" stroke-width="0.25" opacity="0.5"/>
  
  <!-- Linhas de radar -->
  <line x1="16" y1="3" x2="16" y2="29" stroke="url(#activeGradient)" stroke-width="0.3" opacity="0.3"/>
  <line x1="3" y1="16" x2="29" y2="16" stroke="url(#activeGradient)" stroke-width="0.3" opacity="0.3"/>
  <line x1="5" y1="5" x2="27" y2="27" stroke="url(#activeGradient)" stroke-width="0.2" opacity="0.2"/>
  <line x1="27" y1="5" x2="5" y2="27" stroke="url(#activeGradient)" stroke-width="0.2" opacity="0.2"/>
  
  <!-- Centro do radar -->
  <circle cx="16" cy="16" r="1.5" fill="url(#activeGradient)" filter="url(#glow)"/>
  
  <!-- Pontos de dados -->
  <circle cx="20" cy="12" r="0.8" fill="url(#secondaryGradient)" filter="url(#glow)"/>
  <circle cx="12" cy="20" r="0.8" fill="url(#secondaryGradient)" filter="url(#glow)"/>
  <circle cx="23" cy="20" r="0.6" fill="url(#networkGradient)" filter="url(#glow)"/>
  <circle cx="9" cy="12" r="0.6" fill="url(#networkGradient)" filter="url(#glow)"/>
  
  <!-- Linhas de conexão -->
  <path d="M 16 16 L 20 12" stroke="url(#secondaryGradient)" stroke-width="0.4" opacity="0.6" filter="url(#glow)"/>
  <path d="M 16 16 L 12 20" stroke="url(#secondaryGradient)" stroke-width="0.4" opacity="0.6" filter="url(#glow)"/>
  <path d="M 20 12 L 23 20" stroke="url(#networkGradient)" stroke-width="0.3" opacity="0.5" filter="url(#glow)"/>
  <path d="M 12 20 L 9 12" stroke="url(#networkGradient)" stroke-width="0.3" opacity="0.5" filter="url(#glow)"/>
  
  <!-- Interface holográfica -->
  <rect x="4" y="4" width="24" height="1.5" fill="url(#activeGradient)" opacity="0.2" rx="0.8"/>
  <rect x="4" y="26" width="24" height="1.5" fill="url(#activeGradient)" opacity="0.2" rx="0.8"/>
  <rect x="4" y="4" width="1.5" height="24" fill="url(#activeGradient)" opacity="0.2" rx="0.8"/>
  <rect x="26" y="4" width="1.5" height="24" fill="url(#activeGradient)" opacity="0.2" rx="0.8"/>
  
  <!-- Elementos de análise -->
  <rect x="7" y="7" width="6" height="0.8" fill="url(#secondaryGradient)" opacity="0.7" rx="0.4"/>
  <rect x="19" y="7" width="6" height="0.8" fill="url(#secondaryGradient)" opacity="0.7" rx="0.4"/>
  <rect x="7" y="24" width="6" height="0.8" fill="url(#secondaryGradient)" opacity="0.7" rx="0.4"/>
  <rect x="19" y="24" width="6" height="0.8" fill="url(#secondaryGradient)" opacity="0.7" rx="0.4"/>
</svg>